<svg xmlns="http://www.w3.org/2000/svg" viewBox="0 0 750 500"><g id="freepik--background-complete--inject-107"><path d="M249.51,134.15H122.87V47.51H249.51Zm-125.64-1H248.51V48.51H123.87Z" style="fill:#ebebeb"></path><path d="M132.77,53.1a2.52,2.52,0,1,1-2.52-2.53A2.52,2.52,0,0,1,132.77,53.1Z" style="fill:#a6a6a6"></path><path d="M143.06,53.1a2.52,2.52,0,1,1-2.52-2.53A2.52,2.52,0,0,1,143.06,53.1Z" style="fill:#ebebeb"></path><path d="M153.35,53.1a2.52,2.52,0,1,1-2.52-2.53A2.52,2.52,0,0,1,153.35,53.1Z" style="fill:#FFC727"></path><rect x="123.37" y="57.53" width="125.64" height="1" style="fill:#ebebeb"></rect><path d="M652.84,257.93l6.07-9.77-3-1.86a2.72,2.72,0,0,1-1.26-2.57c0-.57.06-1.15.05-1.72a2.73,2.73,0,0,1,1.43-2.48l3.1-1.67-5.44-10.14-3.1,1.66a2.73,2.73,0,0,1-2.86-.18,16.93,16.93,0,0,0-1.46-.91,2.7,2.7,0,0,1-1.44-2.48l.11-3.52-11.5-.35-.11,3.53a2.73,2.73,0,0,1-1.6,2.38l-.76.38c-.25.13-.49.27-.73.42a2.75,2.75,0,0,1-2.86,0l-3-1.87-6.06,9.78,3,1.86a2.73,2.73,0,0,1,1.27,2.57,16.38,16.38,0,0,0-.06,1.72,2.74,2.74,0,0,1-1.43,2.48l-3.1,1.66L623.52,257l3.1-1.66a2.73,2.73,0,0,1,2.86.18,14.69,14.69,0,0,0,1.46.9,2.74,2.74,0,0,1,1.44,2.48l-.11,3.53,11.5.36.11-3.53a2.72,2.72,0,0,1,1.6-2.37c.25-.12.51-.25.76-.39s.5-.27.74-.42a2.77,2.77,0,0,1,2.87,0Zm-9.73-7.26A9.42,9.42,0,1,1,647,237.92,9.41,9.41,0,0,1,643.11,250.67Z" style="fill:#ebebeb"></path><path d="M95.62,98.23l7-4-1.23-2.14a1.89,1.89,0,0,1,.07-2,9.69,9.69,0,0,0,.6-1,1.91,1.91,0,0,1,1.7-1.06h2.47V79.89h-2.47a1.93,1.93,0,0,1-1.7-1.06,10.93,10.93,0,0,0-.6-1,1.89,1.89,0,0,1-.07-2l1.23-2.13-7-4-1.23,2.15a1.92,1.92,0,0,1-1.78.93H91.42a1.89,1.89,0,0,1-1.77-.93l-1.24-2.15-7,4,1.23,2.14a1.92,1.92,0,0,1-.07,2,9.69,9.69,0,0,0-.6,1,1.93,1.93,0,0,1-1.7,1.06H77.82V88h2.47A1.91,1.91,0,0,1,82,89a10.77,10.77,0,0,0,.6,1,1.92,1.92,0,0,1,.07,2L81.43,94.2l7,4,1.23-2.15a1.93,1.93,0,0,1,1.78-.93h1.19a1.93,1.93,0,0,1,1.78.94ZM92,90.52a6.6,6.6,0,1,1,6.61-6.6A6.59,6.59,0,0,1,92,90.52Z" style="fill:#ebebeb"></path><path d="M617.33,265l-4-7-2.13,1.23a1.92,1.92,0,0,1-2-.07,10.93,10.93,0,0,0-1-.6,1.93,1.93,0,0,1-1.06-1.7v-2.47H599v2.47a1.91,1.91,0,0,1-1.06,1.7,9.69,9.69,0,0,0-1,.6,1.92,1.92,0,0,1-2,.07L592.74,258l-4,7,2.14,1.23a1.91,1.91,0,0,1,.94,1.78c0,.2,0,.39,0,.59s0,.4,0,.6a1.92,1.92,0,0,1-.93,1.77l-2.15,1.24,4,7,2.15-1.23a1.9,1.9,0,0,1,2,.07c.33.21.68.42,1,.6a1.91,1.91,0,0,1,1.06,1.7v2.47h8.06v-2.47a1.93,1.93,0,0,1,1.06-1.7,11.73,11.73,0,0,0,1-.6,1.89,1.89,0,0,1,2-.07l2.14,1.23,4-7L615.19,271a1.92,1.92,0,0,1-.94-1.77c0-.2,0-.4,0-.6s0-.39,0-.59a1.93,1.93,0,0,1,.94-1.78Zm-7.7,3.6A6.61,6.61,0,1,1,603,262,6.6,6.6,0,0,1,609.63,268.61Z" style="fill:#ebebeb"></path><path d="M636.57,143.27a31.55,31.55,0,1,1-31.21-36.17v31.54Z" style="fill:#dbdbdb"></path><path d="M643.34,132.22a32.14,32.14,0,0,1-.34,4.63l-31.21-4.63V100.67a31.53,31.53,0,0,1,31.55,31.55Z" style="fill:#ebebeb"></path><rect x="621.37" y="155.61" width="33.55" height="1" style="fill:#c7c7c7"></rect><path d="M657.27,159a2.86,2.86,0,1,1,2.85-2.86A2.86,2.86,0,0,1,657.27,159Zm0-4.71a1.86,1.86,0,1,0,1.85,1.85A1.85,1.85,0,0,0,657.27,154.26Z" style="fill:#c7c7c7"></path><rect x="665.8" y="154.35" width="26.06" height="1.18" style="fill:#c7c7c7"></rect><rect x="665.8" y="156.7" width="14.75" height="1.18" style="fill:#c7c7c7"></rect><rect x="64.32" y="230.97" width="7.72" height="54.95" style="fill:#ebebeb"></rect><rect x="77.59" y="244.27" width="7.72" height="41.65" style="fill:#ebebeb"></rect><rect x="90.86" y="265.1" width="7.72" height="20.82" style="fill:#ebebeb"></rect><rect x="104.14" y="253.2" width="7.72" height="32.72" style="fill:#ebebeb"></rect><rect x="117.41" y="240.71" width="7.72" height="45.21" style="fill:#ebebeb"></rect><rect x="130.68" y="233.37" width="7.72" height="52.55" style="fill:#ebebeb"></rect><path d="M59.84,224l.09,15.48L60,255l.06,31-.2-.19q10.65,0,21.29,0l21.29,0,21.29.05,21.29.11-21.29.12-21.29,0-21.29,0q-10.63,0-21.29,0h-.19v-.2l.06-31,0-15.48Z" style="fill:#ebebeb"></path><path d="M58.14,227.09a6.72,6.72,0,0,1,3.41,0,6.72,6.72,0,0,1-3.41,0Z" style="fill:#ebebeb"></path><path d="M58.14,231.8a6.72,6.72,0,0,1,3.41,0,6.72,6.72,0,0,1-3.41,0Z" style="fill:#ebebeb"></path><path d="M58.14,236.51a6.72,6.72,0,0,1,3.41,0,7,7,0,0,1-3.41,0Z" style="fill:#ebebeb"></path><path d="M58.14,241.21a6.72,6.72,0,0,1,3.41,0,5.58,5.58,0,0,1-1.71.22A6.25,6.25,0,0,1,58.14,241.21Z" style="fill:#ebebeb"></path><path d="M58.14,245.92a6.72,6.72,0,0,1,3.41,0,6.72,6.72,0,0,1-3.41,0Z" style="fill:#ebebeb"></path><path d="M58.14,250.63a6.72,6.72,0,0,1,3.41,0,6.72,6.72,0,0,1-3.41,0Z" style="fill:#ebebeb"></path><path d="M58.14,255.33a6.72,6.72,0,0,1,3.41,0,6.72,6.72,0,0,1-3.41,0Z" style="fill:#ebebeb"></path><path d="M58.14,260a6.72,6.72,0,0,1,3.41,0,6.72,6.72,0,0,1-3.41,0Z" style="fill:#ebebeb"></path><path d="M58.14,264.75a6.25,6.25,0,0,1,1.7-.22,5.58,5.58,0,0,1,1.71.22,6.72,6.72,0,0,1-3.41,0Z" style="fill:#ebebeb"></path><path d="M58.14,269.45a7,7,0,0,1,3.41,0,6.72,6.72,0,0,1-3.41,0Z" style="fill:#ebebeb"></path><path d="M58.14,274.16a6.72,6.72,0,0,1,3.41,0,6.72,6.72,0,0,1-3.41,0Z" style="fill:#ebebeb"></path><path d="M58.14,278.87a6.72,6.72,0,0,1,3.41,0,6.72,6.72,0,0,1-3.41,0Z" style="fill:#ebebeb"></path><path d="M687.16,304.22,674,304.5l-6.66.11c-2.22.05-4.46,0-6.69.06h-.45v-.45L660.18,293v-.5h.5l13.24.06c4.41,0,8.82.11,13.24.16h.27V293c0,1.9-.09,3.79-.13,5.66Zm0,0-.14-5.65c0-1.86-.12-3.7-.14-5.54l.28.28c-4.42.05-8.83.16-13.24.16l-13.24.06.5-.5-.06,11.19-.44-.44c2.18,0,4.35,0,6.54.05l6.58.12Z" style="fill:#ebebeb"></path><path d="M672.39,318.33l-13.13.28-6.66.11c-2.23,0-4.46,0-6.69.06h-.45v-.45l-.05-11.19v-.5h.51l13.24.07c4.41,0,8.82.11,13.24.16h.27v.27c0,1.9-.09,3.79-.13,5.66Zm0,0-.15-5.65c0-1.86-.11-3.7-.13-5.54l.28.28c-4.42.05-8.83.16-13.24.16l-13.24.06.49-.5,0,11.19-.44-.44c2.18,0,4.35,0,6.54.05l6.58.12Z" style="fill:#ebebeb"></path><path d="M701.93,318.33l-13.13.28-6.66.11c-2.22,0-4.46,0-6.69.06H675v-.45l0-11.19v-.5h.5l13.24.07c4.41,0,8.83.11,13.24.16h.27v.27c0,1.9-.08,3.79-.13,5.66Zm0,0-.14-5.65c0-1.86-.12-3.7-.13-5.54l.27.28c-4.41.05-8.83.16-13.24.16l-13.24.06.5-.5-.06,11.19-.44-.44c2.18,0,4.36,0,6.54.05l6.58.12Z" style="fill:#ebebeb"></path><path d="M145.42,171.07l-13.13.28-6.66.11c-2.23,0-4.46,0-6.69,0h-.45v-.45l0-11.19v-.5h.51l13.24.06c4.41,0,8.82.11,13.24.16h.27v.27c0,1.9-.09,3.78-.13,5.65Zm0,0-.15-5.66c0-1.86-.11-3.7-.13-5.53l.28.27c-4.42,0-8.83.16-13.24.16l-13.24.07.49-.5-.05,11.19-.44-.45c2.18,0,4.35,0,6.54.06l6.58.11Z" style="fill:#ebebeb"></path><path d="M130.64,185.18l-13.12.28-6.66.11c-2.23,0-4.46,0-6.7.05h-.44v-.45L103.66,174v-.5h.5l13.24.06c4.42,0,8.83.11,13.24.16h.28V174c0,1.9-.09,3.78-.13,5.65Zm0,0-.14-5.66c0-1.86-.11-3.7-.13-5.53l.27.27c-4.41.05-8.82.16-13.24.16l-13.24.07.5-.5,0,11.19-.45-.45c2.19,0,4.36,0,6.55.06l6.58.11Z" style="fill:#ebebeb"></path><path d="M160.19,185.18l-13.13.28-6.66.11c-2.22,0-4.46,0-6.69.05h-.45v-.45l0-11.19v-.5h.5l13.24.06c4.41,0,8.82.11,13.24.16h.27V174c0,1.9-.09,3.78-.13,5.65Zm0,0-.14-5.66c-.05-1.86-.12-3.7-.14-5.53l.28.27c-4.42.05-8.83.16-13.24.16l-13.24.07.5-.5-.06,11.19-.44-.45c2.18,0,4.35,0,6.54.06l6.58.11Z" style="fill:#ebebeb"></path><path d="M93.67,318.33l-13.13.28-6.66.11c-2.23,0-4.46,0-6.69.06h-.45v-.45l0-11.19v-.5h.51l13.24.07c4.41,0,8.82.11,13.24.16h.27v.27c0,1.9-.09,3.79-.13,5.66Zm0,0-.15-5.65c0-1.86-.11-3.7-.13-5.54l.28.28c-4.42.05-8.83.16-13.24.16l-13.24.06.49-.5-.05,11.19-.44-.44c2.18,0,4.35,0,6.54.05l6.58.12Z" style="fill:#ebebeb"></path><path d="M532.65,171.06l-13.13.28-6.66.11c-2.22.05-4.46,0-6.69.05h-.45v-.45l-.05-11.19v-.5h.5l13.24.06c4.41,0,8.82.12,13.24.17h.27v.27c0,1.9-.09,3.79-.13,5.65Zm0,0-.14-5.65c0-1.87-.12-3.71-.14-5.54l.28.27c-4.42.05-8.83.16-13.24.17l-13.24.06.5-.5-.06,11.19-.44-.45c2.18,0,4.35,0,6.54.06l6.58.11Z" style="fill:#ebebeb"></path><path d="M685.63,62.38l-13.13.28-6.66.11c-2.23,0-4.46,0-6.69.06h-.45v-.45l-.05-11.19v-.5h.51l13.24.06c4.41,0,8.82.12,13.24.17h.27v.27c0,1.9-.09,3.79-.13,5.65Zm0,0-.15-5.65c0-1.87-.11-3.71-.13-5.54l.28.27c-4.42,0-8.83.16-13.24.17l-13.24.06.49-.5,0,11.19-.44-.45c2.18,0,4.35,0,6.54.06l6.58.11Z" style="fill:#ebebeb"></path><path d="M700.4,76.49l-13.13.28-6.66.11c-2.22.05-4.46,0-6.69.05h-.45v-.45l-.05-11.19v-.5h.5l13.24.06c4.41,0,8.82.12,13.24.17h.27v.27c0,1.9-.09,3.79-.13,5.65Zm0,0-.14-5.65c0-1.87-.12-3.71-.14-5.54l.28.27c-4.42.05-8.83.16-13.24.17l-13.24.06.5-.5-.06,11.19-.44-.45c2.18,0,4.36,0,6.54.06l6.58.11Z" style="fill:#ebebeb"></path><path d="M74.55,62.39l-13.12.28-6.66.11c-2.23,0-4.47,0-6.7.06h-.44v-.45L47.57,51.2v-.5h.5l13.24.07c4.41,0,8.83.11,13.24.16h.28v.27c0,1.9-.08,3.79-.13,5.66Zm0,0-.14-5.65c0-1.87-.11-3.71-.13-5.54l.27.27c-4.41.06-8.83.16-13.24.17l-13.24.06.5-.5,0,11.19L48.07,62c2.18,0,4.36,0,6.55,0l6.58.11Z" style="fill:#ebebeb"></path></g><g id="freepik--Shadow--inject-107"><ellipse cx="375" cy="444.69" rx="317.16" ry="22.55" style="fill:#ebebeb"></ellipse></g><g id="freepik--Floor--inject-107"><polygon points="46.93 393.56 128.95 393.31 210.96 393.23 375 393.06 539.04 393.23 621.05 393.31 703.07 393.56 621.05 393.8 539.04 393.89 375 394.06 210.96 393.89 128.95 393.8 46.93 393.56" style="fill:#263238"></polygon></g><g id="freepik--Plant--inject-107"><path d="M647.51,326.11s10-35.93,18-48.13,22.9-25.61,22.9-25.61S688.06,307.77,647.51,326.11Z" style="fill:#FFC727"></path><path d="M648.22,325.49a171.26,171.26,0,0,0,9.13-17.4,121.67,121.67,0,0,1,5-18.9c0-.11.2-.05.18.07-1.33,5.67-2.88,11.3-4.28,17,4-8.75,7.88-17.6,12.7-25.87a54.94,54.94,0,0,1,4.64-11.5c.05-.1.22,0,.17.07a73.41,73.41,0,0,0-3.12,8.62,87.86,87.86,0,0,1,7.6-10.51c.18-.2.53,0,.36.25-6.44,8.21-10.88,17.55-15.11,27A142.55,142.55,0,0,0,678,278.59s.13,0,.09.06a128.53,128.53,0,0,1-13.45,17.44c-3.08,6.93-6.11,13.89-9.78,20.48,7.34-6.2,13-14.23,18.57-22a.17.17,0,0,1,.28.19c-5.6,8.5-11.38,16.5-19.42,22.79a89.25,89.25,0,0,1-5.38,8.4A.43.43,0,0,1,648.22,325.49Z" style="fill:#263238"></path><path d="M644.4,329.34s18-33.12,12.77-65.25-10.82-43.55-10.82-43.55S618.06,270.5,644.4,329.34Z" style="fill:#FFC727"></path><path d="M637,277.26A157.12,157.12,0,0,0,644,304c.06-11.79.28-23.57.59-35.36a91.1,91.1,0,0,1-3.39-21.95c0-.22.32-.21.33,0a125,125,0,0,0,3.16,18.89q.4-14.58.94-29.16a.13.13,0,0,1,.26,0c0,15.19,0,30.38-.1,45.57a122.12,122.12,0,0,0,5.18-18,.06.06,0,0,1,.11,0c-.54,7.1-2.7,14-5.31,20.54-.07,9.71-.18,19.42-.39,29.13,3-10.33,6.29-20.32,7.17-31.23a.12.12,0,0,1,.23,0c-.24,12-3.34,24.24-7.31,35.55a.56.56,0,0,1-.2.29q-.13,5.33-.31,10.64a.4.4,0,0,1-.79,0Q643.92,318,644,307.1a97.61,97.61,0,0,1-7.09-29.82C636.85,277.19,637,277.17,637,277.26Z" style="fill:#263238"></path><path d="M638.25,272.14a61.48,61.48,0,0,1,1.26,8.75.09.09,0,0,1-.17,0,61.22,61.22,0,0,1-1.48-8.73C637.83,272,638.21,271.92,638.25,272.14Z" style="fill:#263238"></path><path d="M648.77,247.92c0-.1.17-.07.17,0a22,22,0,0,1-.9,6c0,.16-.27.09-.24-.07C648.19,251.92,648.43,249.92,648.77,247.92Z" style="fill:#263238"></path><path d="M637.84,331.88s.74-34.58-9.18-51.77-26.38-26-26.38-26S608.92,315.12,637.84,331.88Z" style="fill:#FFC727"></path><path d="M619.76,302.31a128.45,128.45,0,0,0,13.43,17q-3-10.6-6.87-20.85c-5.56-4.88-11.08-9.93-14.49-16.61a.09.09,0,0,1,.16-.09c3.67,5.91,8.58,10.64,13.74,15.19a266.44,266.44,0,0,0-13.81-30.08.22.22,0,0,1,.38-.22A164.36,164.36,0,0,1,621,282.44c-.93-3.69-1.67-7.47-2.63-11.14a.08.08,0,0,1,.16,0,63,63,0,0,1,4.08,14.66,176.22,176.22,0,0,1,8.73,23.67c-.26-5.19-.58-10.35-1.12-15.52,0-.1.16-.12.18,0a84.16,84.16,0,0,1,1.5,17.42c1.43,5.15,2.63,10.37,3.6,15.62,0,.14-.18.2-.22.06-.54-2.2-1.12-4.39-1.72-6.57,0,0-.08,0-.11,0-5.32-5.33-10.38-11.41-13.7-18.2C619.69,302.3,619.74,302.27,619.76,302.31Z" style="fill:#263238"></path><path d="M608.27,274.17c1.11,1.19,2.12,2.45,3.19,3.68a28.16,28.16,0,0,1,2.85,3.33c0,.05,0,.11-.07.08a16.7,16.7,0,0,1-3.3-3.26,28.19,28.19,0,0,1-2.83-3.71A.1.1,0,0,1,608.27,274.17Z" style="fill:#263238"></path><path d="M667.32,327.66,666.07,344l-3.77,49.52H629.43L625.66,344l-1.25-16.38h42.91Z" style="fill:#455a64"></path><path d="M667.32,327.66,666.07,344H625.66l-1.25-16.38h42.91Z" style="fill:#37474f"></path><rect x="621.49" y="319.62" width="48.74" height="12.56" transform="translate(1291.73 651.8) rotate(180)" style="fill:#455a64"></rect></g><g id="freepik--Device--inject-107"><rect x="149.9" y="67.87" width="450.2" height="306.13" style="fill:#37474f"></rect><rect x="149.9" y="328.84" width="450.2" height="45.16" style="fill:#dbdbdb"></rect><rect x="287.27" y="429.19" width="175.46" height="14.66" style="fill:#c7c7c7"></rect><path d="M382.33,348.39a7.46,7.46,0,1,1-7.46-7.46A7.45,7.45,0,0,1,382.33,348.39Z" style="fill:#37474f"></path><polygon points="441.83 429.2 308.16 429.2 311.56 403.75 311.73 402.55 312.04 400.16 312.2 398.96 312.52 396.58 312.57 396.21 312.68 395.38 313.01 392.99 313.16 391.79 315.54 374.01 434.46 374.01 436.7 390.78 436.81 391.59 437.18 394.37 437.28 395.18 437.43 396.21 437.66 397.95 437.76 398.76 438.13 401.55 438.25 402.35 441.83 429.2" style="fill:#dbdbdb"></polygon><polygon points="437.43 396.21 313.16 391.79 315.54 374.01 434.46 374.01 437.43 396.21" style="fill:#c7c7c7"></polygon><rect x="170.67" y="87.78" width="408.65" height="219.83" style="fill:#fff"></rect><rect x="170.67" y="87.78" width="408.65" height="219.83" style="fill:#fff"></rect><rect x="170.67" y="87.78" width="408.65" height="9.95" style="fill:#455a64"></rect><path d="M178.58,92.75a2.47,2.47,0,1,1-2.47-2.47A2.47,2.47,0,0,1,178.58,92.75Z" style="fill:#c7c7c7"></path><path d="M188.65,92.75a2.47,2.47,0,1,1-2.46-2.47A2.47,2.47,0,0,1,188.65,92.75Z" style="fill:#fff"></path><path d="M198.73,92.75a2.47,2.47,0,1,1-2.47-2.47A2.48,2.48,0,0,1,198.73,92.75Z" style="fill:#FFC727"></path><rect x="572.08" y="97.72" width="7.25" height="209.88" style="fill:#dbdbdb"></rect><path d="M575.7,183.9h0a1.86,1.86,0,0,1-1.87-1.87v-81a1.87,1.87,0,0,1,1.87-1.87h0a1.87,1.87,0,0,1,1.87,1.87v81A1.87,1.87,0,0,1,575.7,183.9Z" style="fill:#a6a6a6"></path></g><g id="freepik--Charts--inject-107"><rect x="191.35" y="115.22" width="223.82" height="77.59" style="fill:#ebebeb"></rect><path d="M336,163.6A17.39,17.39,0,1,1,327.61,131v17.39Z" style="fill:#263238"></path><path d="M337.92,134.37l-10.31,14V131A17.21,17.21,0,0,1,337.92,134.37Z" style="fill:#FFC727"></path><path d="M345,148.36a17.31,17.31,0,0,1-4.61,11.79l-12.78-11.79,10.31-14A17.33,17.33,0,0,1,345,148.36Z" style="fill:#a6a6a6"></path><path d="M346.64,168.22a17.18,17.18,0,0,1-4.4,3.45l-8.37-15.24Z" style="fill:#455a64"></path><path d="M280.68,131.64l-4.77,16.72v17.39a17.39,17.39,0,1,1,4.77-34.11Z" style="fill:#a6a6a6"></path><path d="M286.2,162.37a17.24,17.24,0,0,1-10.29,3.38V148.36Z" style="fill:#263238"></path><path d="M293.29,148.36a17.36,17.36,0,0,1-7.09,14l-10.29-14,13.52-10.93A17.3,17.3,0,0,1,293.29,148.36Z" style="fill:#455a64"></path><path d="M293.29,131.8l-13.52,10.93L284.55,126A17.36,17.36,0,0,1,293.29,131.8Z" style="fill:#FFC727"></path><path d="M224.2,131v17.39l-11.71,12.85A17.39,17.39,0,0,1,224.2,131Z" style="fill:#455a64"></path><path d="M236.65,136.22,224.2,148.36V131A17.38,17.38,0,0,1,236.65,136.22Z" style="fill:#FFC727"></path><path d="M241.59,148.36a17.34,17.34,0,0,1-6.41,13.48l-11-13.48,12.45-12.14A17.38,17.38,0,0,1,241.59,148.36Z" style="fill:#a6a6a6"></path><path d="M235.18,166.4a17.37,17.37,0,0,1-22.69-.63l11.71-12.85Z" style="fill:#263238"></path><path d="M379.32,131v34.78a17.39,17.39,0,0,1,0-34.78Z" style="fill:#FFC727"></path><path d="M383.71,131.53l-4.39,16.83V131A17.6,17.6,0,0,1,383.71,131.53Z" style="fill:#263238"></path><path d="M399.71,147.36a17.36,17.36,0,0,1-1.21,6.38l-16.18-6.38,4.39-16.83A17.41,17.41,0,0,1,399.71,147.36Z" style="fill:#455a64"></path><path d="M395.5,154.74a17.4,17.4,0,0,1-16.18,11V148.36Z" style="fill:#a6a6a6"></path><rect x="216.18" y="175.98" width="20.3" height="1.95" style="fill:#455a64"></rect><rect x="216.18" y="180.05" width="13.47" height="1.95" style="fill:#455a64"></rect><rect x="206.81" y="175.95" width="6.08" height="6.08" style="fill:#455a64"></rect><rect x="267.89" y="175.98" width="20.3" height="1.95" style="fill:#455a64"></rect><rect x="267.89" y="180.05" width="13.47" height="1.95" style="fill:#455a64"></rect><rect x="258.52" y="175.95" width="6.08" height="6.08" style="fill:#a6a6a6"></rect><rect x="319.6" y="175.98" width="20.3" height="1.95" style="fill:#455a64"></rect><rect x="319.6" y="180.05" width="13.47" height="1.95" style="fill:#455a64"></rect><rect x="310.23" y="175.95" width="6.08" height="6.08" style="fill:#263238"></rect><rect x="371.31" y="175.98" width="20.3" height="1.95" style="fill:#455a64"></rect><rect x="371.31" y="180.05" width="13.47" height="1.95" style="fill:#455a64"></rect><rect x="361.94" y="175.95" width="6.08" height="6.08" style="fill:#FFC727"></rect><rect x="426.97" y="115.22" width="131.69" height="77.59" style="fill:#ebebeb"></rect><rect x="443.06" y="178.38" width="5.53" height="5.53" style="fill:#FFC727"></rect><rect x="452.43" y="178.38" width="60.56" height="1.63" style="fill:#455a64"></rect><rect x="452.43" y="182.27" width="39.13" height="1.63" style="fill:#455a64"></rect><path d="M440.42,129.57c17.46-.08,34.92-.06,52.39-.1s34.93,0,52.39.1c-17.46.09-34.93.07-52.39.11S457.88,129.66,440.42,129.57Z" style="fill:#455a64"></path><path d="M440.42,138c17.46-.08,34.92-.06,52.39-.1s34.93,0,52.39.1c-17.46.09-34.93.07-52.39.11S457.88,138,440.42,138Z" style="fill:#455a64"></path><path d="M440.42,146.33c17.46-.09,34.92-.06,52.39-.1s34.93,0,52.39.1c-17.46.09-34.93.07-52.39.1S457.88,146.42,440.42,146.33Z" style="fill:#455a64"></path><path d="M440.42,154.71c17.46-.09,34.92-.07,52.39-.1s34.93,0,52.39.1c-17.46.09-34.93.06-52.39.1S457.88,154.8,440.42,154.71Z" style="fill:#455a64"></path><path d="M440.42,163.09c17.46-.09,34.92-.07,52.39-.11s34.93,0,52.39.11c-17.46.09-34.93.06-52.39.1S457.88,163.17,440.42,163.09Z" style="fill:#455a64"></path><path d="M461.51,124.13c.16,7.83.12,15.65.18,23.48s0,15.66-.18,23.49c-.15-7.83-.11-15.66-.18-23.49S461.36,132,461.51,124.13Z" style="fill:#455a64"></path><path d="M479.63,124.13c.16,7.83.12,15.65.18,23.48s0,15.66-.18,23.49c-.15-7.83-.11-15.66-.18-23.49S479.48,132,479.63,124.13Z" style="fill:#455a64"></path><path d="M497.75,124.13c.16,7.83.12,15.65.18,23.48s0,15.66-.18,23.49c-.15-7.83-.11-15.66-.17-23.49S497.6,132,497.75,124.13Z" style="fill:#455a64"></path><path d="M515.88,124.13c.15,7.83.11,15.65.17,23.48s0,15.66-.17,23.49c-.16-7.83-.12-15.66-.18-23.49S515.72,132,515.88,124.13Z" style="fill:#455a64"></path><path d="M534,124.13c.15,7.83.11,15.65.17,23.48s0,15.66-.17,23.49c-.16-7.83-.12-15.66-.18-23.49S533.84,132,534,124.13Z" style="fill:#455a64"></path><path d="M443.06,157c3.19,0,5.1-8.51,9.63-8.51s5,6.21,8.82,6.21,3.7-10.91,8.83-10.91,3.93,4.43,9.29,4.43S483,138,488.58,138s3.33,14.16,9.17,14.16c3.7,0,5.13-4.5,9.54-4.5,2.92,0,4.64,2.25,8.46,2.25s4.66-8.64,9.42-8.64,5.32,5.11,8.83,5.11,4.76-8.38,11.2-8.38V171.1H443.06Z" style="fill:#FFC727;opacity:0.5"></path><path d="M443.06,157.42v-.82c1,0,2.3-2,3.27-3.44,1.68-2.49,3.41-5.07,6.36-5.07s4.25,1.89,5.49,3.55c1,1.31,2,2.66,3.33,2.66s2.23-2.62,3-4.53c1.24-3.14,2.52-6.38,5.85-6.38a6.1,6.1,0,0,1,5.16,2.4,4.82,4.82,0,0,0,4.13,2c2.06,0,2.87-2.4,3.65-4.72.92-2.73,1.87-5.56,5.3-5.56s4.26,3.56,5.18,7.32c.74,3,1.67,6.84,4,6.84,1.4,0,2.53-.94,3.74-1.92,1.46-1.21,3.12-2.58,5.8-2.58a9.62,9.62,0,0,1,4.08,1.1,10.1,10.1,0,0,0,4.38,1.15c1.33,0,2.53-2,3.5-3.71,1.43-2.42,2.9-4.93,5.92-4.93s4.49,1.63,5.79,3.07c.95,1.05,1.85,2,3,2,1,0,2.15-1.59,3.15-3,1.73-2.4,3.87-5.39,8.05-5.39v.82c-3.22,0-5.08,2.59-6.72,4.88-1.4,1.95-2.51,3.5-4.48,3.5s-3.15-1.21-4.31-2.49-2.39-2.63-4.52-2.63-3.35,2.33-4.56,4.38c-1.34,2.29-2.5,4.27-4.86,4.27a12.06,12.06,0,0,1-5.26-1.32,7.79,7.79,0,0,0-3.2-.93c-1.93,0-3.3,1.13-4.63,2.22s-2.76,2.28-4.91,2.28c-3.57,0-4.46-3.67-5.41-7.54-.72-2.95-1.62-6.62-3.76-6.62s-3.12,2.6-3.89,4.89c-.93,2.77-1.81,5.39-5.06,5.39a6.34,6.34,0,0,1-5.4-2.47,4.61,4.61,0,0,0-3.89-2c-2.18,0-3.44,3.18-4.45,5.74-1.14,2.89-2,5.17-4.38,5.17s-3.44-1.53-4.65-3.16-2.28-3.05-4.17-3.05-3.66,2.52-5,4.54C446.18,155.67,445,157.42,443.06,157.42Z" style="fill:#FFC727"></path><path d="M443.06,124.64c.11,7.74.21,15.48.22,23.23l.11,23.23-.33-.19,51.07,0,25.54,0,25.53.11-25.53.1-25.54,0-51.07,0h-.34v-.19l.11-23.23C442.84,140.12,442.94,132.38,443.06,124.64Z" style="fill:#455a64"></path><rect x="297.65" y="204.13" width="132.95" height="93.38" style="fill:#ebebeb"></rect><polygon points="309.42 282.11 364.13 281.98 418.84 282.11 364.13 282.23 309.42 282.11" style="fill:#263238"></polygon><polygon points="309.42 289.37 364.13 289.25 418.84 289.37 364.13 289.5 309.42 289.37" style="fill:#263238"></polygon><polygon points="309.42 273.76 364.13 273.64 418.84 273.76 364.13 273.89 309.42 273.76" style="fill:#263238"></polygon><polygon points="309.42 265.42 364.13 265.29 418.84 265.42 364.13 265.54 309.42 265.42" style="fill:#263238"></polygon><polygon points="309.42 257.07 364.13 256.94 418.84 257.07 364.13 257.19 309.42 257.07" style="fill:#263238"></polygon><polygon points="309.42 248.72 364.13 248.6 418.84 248.72 364.13 248.85 309.42 248.72" style="fill:#263238"></polygon><polygon points="309.42 240.38 364.13 240.25 418.84 240.38 364.13 240.5 309.42 240.38" style="fill:#263238"></polygon><polygon points="309.42 232.03 364.13 231.91 418.84 232.03 364.13 232.16 309.42 232.03" style="fill:#263238"></polygon><polygon points="309.42 223.69 364.13 223.56 418.84 223.69 364.13 223.81 309.42 223.69" style="fill:#263238"></polygon><polygon points="309.42 215.34 364.13 215.22 418.84 215.34 364.13 215.46 309.42 215.34" style="fill:#263238"></polygon><polygon points="314.34 278.24 328.96 260.22 334.95 263.77 350.74 245.68 355.1 249.7 365.25 242.44 379.31 254.03 382.44 250.01 390.48 258.36 403.09 246.51 410.58 253.72 418.84 250.94 418.84 289.76 314.34 289.76 314.34 278.24" style="fill:#a6a6a6"></polygon><polygon points="314.34 278.35 328.33 274.76 341.49 260.22 346.84 264.23 357.46 252.28 365.93 256.19 369.65 252.69 380.04 265.31 394.7 246.51 406.13 260.22 418.84 253.21 418.84 289.76 314.34 289.76 314.34 278.35" style="fill:#455a64"></polygon><polygon points="314.66 277.89 332.5 266.35 342.12 271.23 347.38 269.24 353.01 273.15 367.13 263.67 369.64 267.8 374.55 266.15 384.31 271.23 397.6 264.5 405.59 271.23 418.84 259.76 418.84 289.76 314.66 289.76 314.66 277.89" style="fill:#FFC727"></polygon><rect x="313.17" y="211.43" width="1.5" height="78.79" style="fill:#455a64"></rect><rect x="365.16" y="236.53" width="1.69" height="105.68" transform="translate(655.38 -76.63) rotate(90)" style="fill:#455a64"></rect><rect x="438.98" y="204.13" width="119.68" height="93.38" style="fill:#ebebeb"></rect><path d="M452.74,216.86l55.24-.14c18.42.05,18.49,0,36.91.14-18.42.13-18.49.09-36.91.15Z" style="fill:#455a64"></path><path d="M452.74,221.25l55.24-.14c18.42,0,18.49,0,36.91.14-18.42.13-18.49.1-36.91.15Z" style="fill:#455a64"></path><path d="M452.74,225.64,508,225.5c18.42.05,18.49,0,36.91.14-18.42.13-18.49.1-36.91.15Z" style="fill:#455a64"></path><path d="M452.74,230l55.24-.14c18.42.05,18.49,0,36.91.14-18.42.13-18.49.1-36.91.15Z" style="fill:#455a64"></path><path d="M452.74,234.42l55.24-.14c18.42.05,18.49,0,36.91.14-18.42.13-18.49.1-36.91.15Z" style="fill:#455a64"></path><path d="M452.74,238.81l55.24-.14c18.42.05,18.49,0,36.91.14-18.42.13-18.49.1-36.91.15Z" style="fill:#455a64"></path><path d="M452.74,243.2l55.24-.14c18.42.05,18.49,0,36.91.14-18.42.13-18.49.1-36.91.15Z" style="fill:#455a64"></path><path d="M452.74,247.59l55.24-.14c18.42.05,18.49,0,36.91.14-18.42.13-18.49.1-36.91.15Z" style="fill:#455a64"></path><path d="M452.74,252l55.24-.14c18.42,0,18.49,0,36.91.14-18.42.13-18.49.1-36.91.15Z" style="fill:#455a64"></path><path d="M452.74,256.37l55.24-.14c18.42,0,18.49,0,36.91.14-18.42.13-18.49.1-36.91.15Z" style="fill:#455a64"></path><path d="M452.74,260.76l55.24-.14c18.42.05,18.49,0,36.91.14-18.42.13-18.49.1-36.91.15Z" style="fill:#455a64"></path><path d="M452.74,265.15,508,265c18.42.05,18.49,0,36.91.14-18.42.13-18.49.1-36.91.15Z" style="fill:#455a64"></path><path d="M452.74,269.54,508,269.4c18.42.05,18.49,0,36.91.14-18.42.13-18.49.1-36.91.15Z" style="fill:#455a64"></path><path d="M452.74,273.93l55.24-.14c18.42,0,18.49,0,36.91.14-18.42.13-18.49.1-36.91.15Z" style="fill:#455a64"></path><path d="M452.74,278.32l55.24-.14c18.42.05,18.49,0,36.91.14-18.42.13-18.49.1-36.91.15Z" style="fill:#455a64"></path><rect x="464.43" y="247.59" width="8.38" height="35.85" style="fill:#FFC727"></rect><rect x="479.97" y="232.43" width="8.38" height="51.01" style="fill:#fff"></rect><rect x="495.51" y="243.36" width="8.38" height="40.09" style="fill:#a6a6a6"></rect><rect x="511.05" y="230.03" width="8.38" height="53.41" style="fill:#FFC727"></rect><rect x="526.59" y="237.2" width="8.38" height="46.25" style="fill:#fff"></rect><path d="M455.74,213.78,456,231.2l.16,17.41q.15,17.42.16,34.83l-.55-.53,26.87,0,26.87.06,26.87.18,8.54.31-8.54.32-26.87.17-26.87.07-26.87,0h-.54v-.53c0-11.61.05-23.22.16-34.83l.15-17.41Z" style="fill:#455a64"></path><rect x="464.43" y="287.12" width="8.38" height="0.74" style="fill:#455a64"></rect><rect x="479.97" y="287.12" width="8.38" height="0.74" style="fill:#455a64"></rect><rect x="495.51" y="287.12" width="8.38" height="0.74" style="fill:#455a64"></rect><rect x="511.05" y="287.12" width="8.38" height="0.74" style="fill:#455a64"></rect><rect x="526.59" y="287.12" width="8.38" height="0.74" style="fill:#455a64"></rect></g><g id="freepik--Character--inject-107"><path d="M238.54,454.76c-2.12.69-62.77.15-65.07-1.33-.88-.56-1.32-9.4-1.54-20.09-.05-2.31-.09-4.69-.11-7.12l-4.52-32.41,40.55.24,3.43,32.41-.25,7.11s23.13,10.59,25.48,12.49S240.67,454.07,238.54,454.76Z" style="fill:#eb9481"></path><path d="M238.54,454.76c-2.12.69-62.77.15-65.07-1.33-1.07-.68-1.49-13.59-1.65-27.21l39.46.24-.25,7.11s23.13,10.59,25.48,12.49S240.67,454.07,238.54,454.76Z" style="fill:#fff"></path><path d="M238.54,454.76c-2.12.69-62.77.15-65.07-1.33-.88-.56-1.32-9.4-1.54-20.09l39.1.23s23.13,10.59,25.48,12.49S240.67,454.07,238.54,454.76Z" style="fill:#FFC727"></path><path d="M237.7,452.32c-10.17-.34-51.2-.75-61.27-.31-.08,0-.09.06,0,.06,10.06.56,51.1.64,61.27.42C237.91,452.48,237.91,452.33,237.7,452.32Z" style="fill:#263238"></path><path d="M232.63,443.84a8.16,8.16,0,0,0-6.1,2.43,7.87,7.87,0,0,0-2.32,5.41c0,.06.11.06.12,0a9.45,9.45,0,0,1,8.3-7.71A.07.07,0,0,0,232.63,443.84Z" style="fill:#263238"></path><path d="M215,434.62c-4.07-.1-8.8,1.3-11.36,4.61-.1.12.09.26.21.2A56.58,56.58,0,0,1,215,435.12.25.25,0,0,0,215,434.62Z" style="fill:#263238"></path><path d="M218.1,435.87c-4.07-.09-8.8,1.3-11.36,4.61-.1.13.09.27.21.2a56.43,56.43,0,0,1,11.22-4.31A.26.26,0,0,0,218.1,435.87Z" style="fill:#263238"></path><path d="M221.23,437.12c-4.07-.09-8.8,1.3-11.36,4.61-.1.13.09.27.21.21a55.86,55.86,0,0,1,11.22-4.32A.26.26,0,0,0,221.23,437.12Z" style="fill:#263238"></path><path d="M224.36,438.37c-4.07-.09-8.8,1.31-11.36,4.61-.1.13.09.27.21.21a55.23,55.23,0,0,1,11.22-4.31A.26.26,0,0,0,224.36,438.37Z" style="fill:#263238"></path><path d="M179.1,442.38c-4.56,0-4.61,7.07,0,7.09S183.68,442.4,179.1,442.38Z" style="fill:#263238"></path><path d="M219.46,423.8c-2-1.73-4.65-.08-5.94,1.68a21.39,21.39,0,0,0-3.79,10.37c0,.09.06.12.13.12a.5.5,0,0,0,.73.34c2.91-2,6.27-3.74,8.5-6.55C220.38,428.12,221.4,425.43,219.46,423.8Zm-5.07,8.6c-1.41,1-2.86,1.94-4.23,3a62.83,62.83,0,0,1,2.35-6,22,22,0,0,1,1.51-2.73c.89-1.34,4.92-4.7,5.28-.27C219.51,428.83,216.07,431.2,214.39,432.4Z" style="fill:#263238"></path><path d="M199.61,437.27c3.54.58,7.2-.4,10.69-.91a.5.5,0,0,0,.31-.74.1.1,0,0,0,0-.17,21.4,21.4,0,0,0-9.8-5.09c-2.14-.43-5.17.12-5.52,2.77S197.54,436.94,199.61,437.27Zm-2.44-2.34c-2.72-3.51,2.52-3.75,4.08-3.36a21.88,21.88,0,0,1,3,1,60.92,60.92,0,0,1,5.79,2.85c-1.73.14-3.43.43-5.15.64C202.8,436.3,198.67,436.87,197.17,434.93Z" style="fill:#263238"></path><path d="M109.56,243.55s46.1,80.68,47.29,86.32C158.68,338.53,167.9,424,167.9,424l45.37-.28s-7.51-75.34-15.21-100.23c-4.2-13.59-26.28-50.42-36.63-68.6-.93-1.62-.65-9.06-.65-9.06Z" style="fill:#263238"></path><path d="M208.91,416.16c-7-.14-28.33-.73-37.71,0a.07.07,0,0,0,0,.14c3.22.5,30.68.16,37.71,0A.1.1,0,1,0,208.91,416.16Z" style="fill:#37474f"></path><path d="M117.51,251c3,4.88,6.22,9.66,9.32,14.49s6.18,9.69,9.22,14.56q9.13,14.59,17.82,29.46A89.54,89.54,0,0,1,161,323.88,87.46,87.46,0,0,1,165,339.3c.89,5.27,1.46,10.59,2,15.9q.85,8.49,1.68,17l3.45,34.74c.14,1.42.28,2.84.4,4.26,0,.21-.35.25-.38,0-1.3-11.51-2.35-23.05-3.52-34.57l-1.74-17.21c-.54-5.33-1.05-10.67-1.82-16A103.78,103.78,0,0,0,161.78,328a74.17,74.17,0,0,0-6.59-15.07c-5.55-9.86-11.44-19.56-17.33-29.23s-11.94-19.49-18.16-29.08c-.77-1.19-1.55-2.36-2.34-3.53C117.29,251,117.45,250.91,117.51,251Z" style="fill:#37474f"></path><path d="M127.81,458.05c-2.24-.16-59.62-24.24-61.2-26.48a.81.81,0,0,1-.08-.42c0-2,4.11-8.88,7.56-17.95.22-.58,1.74-3.26,3.85-6.88,5.8-9.94,16.06-27,16.06-27l37.51,15.44-18.37,26.79-2.89,6.5s17.47,18.51,18.93,21.14S130,458.2,127.81,458.05Z" style="fill:#eb9481"></path><path d="M127.81,458.05c-2.24-.16-59.62-24.24-61.2-26.48a.81.81,0,0,1-.08-.42c0-2,4.11-8.88,7.56-17.95.22-.58,1.74-3.26,3.85-6.88l35.2,15.26-2.89,6.5s17.47,18.51,18.93,21.14S130,458.2,127.81,458.05Z" style="fill:#fff"></path><path d="M127.8,458.05c-2.23-.16-59.61-24.24-61.19-26.48-.6-.84,2.07-8.69,7.48-18.37l36.16,14.89s17.47,18.49,18.93,21.13S130,458.2,127.8,458.05Z" style="fill:#FFC727"></path><path d="M127.93,455.47c-9.3-4.13-47.18-19.9-56.68-23.27-.08,0-.1,0,0,.06,9.12,4.29,47.13,19.75,56.64,23.37C128.07,455.7,128.13,455.56,127.93,455.47Z" style="fill:#263238"></path><path d="M126.41,445.71a8.18,8.18,0,0,0-6.56,0,7.89,7.89,0,0,0-4.18,4.15c0,.05.08.1.11,0a9.44,9.44,0,0,1,10.59-4A.06.06,0,0,0,126.41,445.71Z" style="fill:#263238"></path><path d="M113.5,430.53c-3.73-1.61-8.64-2.09-12.25,0-.14.08,0,.27.11.26a56.84,56.84,0,0,1,12,.21A.25.25,0,0,0,113.5,430.53Z" style="fill:#263238"></path><path d="M115.94,432.87c-3.74-1.61-8.65-2.09-12.26,0-.14.08,0,.28.11.27a56.18,56.18,0,0,1,12,.21A.26.26,0,0,0,115.94,432.87Z" style="fill:#263238"></path><path d="M118.37,435.2c-3.74-1.61-8.65-2.09-12.26,0-.14.08,0,.28.11.26a56.83,56.83,0,0,1,12,.21A.26.26,0,0,0,118.37,435.2Z" style="fill:#263238"></path><path d="M120.8,437.54c-3.74-1.61-8.65-2.09-12.26,0-.14.08,0,.28.12.27a56.09,56.09,0,0,1,12,.21A.26.26,0,0,0,120.8,437.54Z" style="fill:#263238"></path><path d="M77.34,424.27c-4.22-1.74-6.93,4.82-2.7,6.56S81.57,426,77.34,424.27Z" style="fill:#263238"></path><path d="M121.73,422.19c-1.25-2.37-4.29-1.82-6.14-.67a21.32,21.32,0,0,0-7.4,8.2.1.1,0,0,0,.07.15c0,.3.19.66.55.59,3.44-.75,7.22-1.11,10.33-2.89C121,426.54,122.91,424.43,121.73,422.19Zm-7.93,6.07c-1.68.41-3.38.73-5,1.2a61.38,61.38,0,0,1,4.43-4.69,23,23,0,0,1,2.43-2c1.33-.9,6.32-2.51,5,1.73C119.88,426.87,115.81,427.78,113.8,428.26Z" style="fill:#263238"></path><path d="M98.27,427.23c3.06,1.86,6.83,2.33,10.25,3.17.35.09.59-.27.56-.57.07,0,.12-.08.08-.15a21.43,21.43,0,0,0-7.17-8.4c-1.82-1.2-4.84-1.83-6.16.5S96.48,426.15,98.27,427.23Zm-1.38-3.08c-1.21-4.28,3.74-2.53,5-1.59a22.87,22.87,0,0,1,2.37,2c1.56,1.49,2.89,3.18,4.29,4.81-1.65-.51-3.34-.88-5-1.33C101.59,427.53,97.55,426.51,96.89,424.15Z" style="fill:#263238"></path><path d="M116.07,420.11l-42-17.56s53.27-76.28,53.72-82c.41-5.06-22-49.48-22.78-62.36-.8-13.89,6-24.55,13.44-31.13l42.32,18.78s-3.7,7.56-11,11.56c0,0,21.7,51.29,20.24,67S116.07,420.11,116.07,420.11Z" style="fill:#263238"></path><path d="M118,412.1c-6.07-2.69-4.29-2-10.39-4.64-3-1.28-22.61-9.73-25.6-10.44a.08.08,0,0,0-.06.13c2.61,1.64,22.38,9.73,25.39,11,6.15,2.52,4.41,1.73,10.58,4.17A.1.1,0,0,0,118,412.1Z" style="fill:#37474f"></path><path d="M157,256.54a81.78,81.78,0,0,0-13.31,4.14.14.14,0,1,0,.09.26c4.46-1.24,9-2.4,13.39-3.88A.27.27,0,0,0,157,256.54Z" style="fill:#37474f"></path><path d="M151.83,254.69a17.87,17.87,0,0,0-1.15,2.32,5.2,5.2,0,0,0-.59,1.94c0,.13.17.17.25.09a7,7,0,0,0,1.12-1.83c.38-.71.77-1.42,1.13-2.14A.43.43,0,0,0,151.83,254.69Z" style="fill:#37474f"></path><path d="M152.41,250.6c.27-.66.55-1.33.84-2s.64-1.36.89-2.06c0-.11.22,0,.17.08-.27.66-.46,1.38-.68,2.06s-.46,1.38-.69,2.07c-.45,1.27-1,2.54-1.55,3.76a4.83,4.83,0,0,0,2.1-.33,3.78,3.78,0,0,0,1.49-1.76c.4-.74.76-1.5,1.16-2.24a15.82,15.82,0,0,0,1.24-2.51c0-.11.21,0,.17.08a29.65,29.65,0,0,1-2.39,5.34c-.4.66-.74,1.34-1.48,1.6a6.14,6.14,0,0,1-2.49.13c-.1,0-.23,0-.19-.16A41.63,41.63,0,0,1,152.41,250.6Z" style="fill:#37474f"></path><path d="M150.45,259.06c1.51,3.3,2.83,6.58,4.23,9.87s2.66,6.45,3.91,9.72c2.51,6.59,4.75,13.3,6.71,20.08q1.45,5,2.66,10.13c.8,3.4,2.63,10.53,2.64,14,0,5.95-8.68,21.34-10.27,24.53-1,1.95-1.29,1.68-.82.7,1.33-2.8,9.52-20.54,9.91-25,.3-3.44-1.42-8.62-2.16-12s-1.61-6.85-2.55-10.25c-1.86-6.68-4.07-13.24-6.35-19.78-1.28-3.67-2.66-7.3-4-11s-2.66-7-4.11-11A.09.09,0,1,1,150.45,259.06Z" style="fill:#37474f"></path><path d="M118.55,247.83c.75-.27,1.8.21,2.57.34a21.24,21.24,0,0,0,3,.34,22.62,22.62,0,0,0,3-.06,6.54,6.54,0,0,0,2.85-.72,14.27,14.27,0,0,0,3.67-3.8,21.87,21.87,0,0,0,2.88-4.92c0-.11.2,0,.16.07-.33,1-.58,2-1,3a20,20,0,0,1-1.43,2.66A11.47,11.47,0,0,1,130.4,249c-1.76,1-4,.89-6,.75a22.49,22.49,0,0,1-3.36-.49c-.79-.18-2.14-.32-2.64-1A.25.25,0,0,1,118.55,247.83Z" style="fill:#37474f"></path><path d="M86.22,394.65Q96.83,379,107,363.17t20.17-32c1.58-2.57,3.4-5.13,4.44-8,1.12-3.11.54-6.13-.4-9.19A155.74,155.74,0,0,0,125,297.51c-2.37-5.39-4.92-10.7-7.43-16a151.35,151.35,0,0,1-7-16.12c-1.79-5.3-2.43-10.77-.94-16.22s4.59-10.24,7.83-14.75c.86-1.19,1.73-2.37,2.59-3.55.06-.09.2,0,.13.11-3.57,4.69-7.06,9.67-9.18,15.21a26.46,26.46,0,0,0-1.85,8.56,27.88,27.88,0,0,0,1.26,8.79c1.64,5.54,4.27,10.8,6.72,16s5.07,10.64,7.48,16a169.94,169.94,0,0,1,6.54,16.53c.82,2.51,1.74,5.14,1.65,7.81-.1,2.93-1.53,5.56-3,8-6.45,10.68-13.13,21.23-19.89,31.72s-13.71,21-20.73,31.33c-.88,1.31-1.77,2.61-2.66,3.92C86.35,395,86.11,394.82,86.22,394.65Z" style="fill:#37474f"></path><path d="M158,152.9c-1.11.28-6.05.28-8.78,5.1-2.59,4.56-2.17,17.45-2.5,20.31s-3.93,3.7-4.41,7c-.41,2.87,1.73,3.65,2.18,5.66.34,1.56-1,4.12.75,6.29,1.56,2,3.81,1.25,5.28,1.75s2.72,3.63,5.4,4.19,4.69-2,6.05-2.2,3.49,3.86,7.91,3,5.26-4.82,7-5.78,6.53-.22,8.37-2.77,1.85-5.67,2.67-6.91,2.82-1.3,3.7-4.06-1.76-4.13-2.37-6.37c-.42-1.55.81-3.17-.46-5.47-1.75-3.17-5.73-2-7.69-5.21-1.53-2.53-5.41-13.88-12.78-15.92C163.23,150.1,158,152.9,158,152.9Z" style="fill:#263238"></path><path d="M146.77,177.62a4.2,4.2,0,0,1-1,1.64l-1.31,1.43a12.26,12.26,0,0,0-2.25,3,3.89,3.89,0,0,0,0,3.44,5.84,5.84,0,0,0,1.12,1.44,7.15,7.15,0,0,1,1.3,1.57,3.36,3.36,0,0,1,.06,2.12c-.13.64-.29,1.26-.4,1.87a4.63,4.63,0,0,0,.53,3.49,2.58,2.58,0,0,0,1.36,1.05,4.65,4.65,0,0,0,1.83.18c.63,0,1.27-.12,1.91-.19a3.2,3.2,0,0,1,1.91.21,3.43,3.43,0,0,0-1.88,0c-.63.12-1.26.27-1.91.36a5.16,5.16,0,0,1-2-.09,3.16,3.16,0,0,1-1.69-1.18,5,5,0,0,1-.73-3.91c.1-.66.26-1.29.37-1.91a2.66,2.66,0,0,0,0-1.66c-.51-1-1.76-1.75-2.36-3a4.36,4.36,0,0,1,.13-4,12.39,12.39,0,0,1,2.5-3l1.42-1.3A4.5,4.5,0,0,0,146.77,177.62Z" style="fill:#263238"></path><path d="M175.6,157.31a56.83,56.83,0,0,1,3.66,5.87c.61,1,1.17,2,1.84,2.89a7.18,7.18,0,0,0,1.07,1.24.93.93,0,0,0,.29.22,1.2,1.2,0,0,0,.34.17c.25.1.52.18.79.26a33.65,33.65,0,0,1,3.31,1.09,5.89,5.89,0,0,1,2.81,2.22,3.63,3.63,0,0,1,.57,1.75,4.72,4.72,0,0,1-.32,1.77,7.4,7.4,0,0,0-.7,3.32,7.15,7.15,0,0,1,.35-3.43,4.4,4.4,0,0,0,.2-1.63,3.21,3.21,0,0,0-.57-1.47,5.77,5.77,0,0,0-2.6-1.91,31.24,31.24,0,0,0-3.27-1c-.28-.09-.56-.18-.84-.29a2.46,2.46,0,0,1-.82-.53,8.25,8.25,0,0,1-1.16-1.38,30.7,30.7,0,0,1-1.78-3l-1.56-3.09A29.74,29.74,0,0,0,175.6,157.31Z" style="fill:#263238"></path><path d="M188.93,187.63a6,6,0,0,0-.47,2.39c-.08.82-.16,1.64-.28,2.47a11.88,11.88,0,0,1-.58,2.46,5.45,5.45,0,0,1-1.39,2.22,6.94,6.94,0,0,1-5,1.18c-.83-.06-1.65-.16-2.46-.19a5,5,0,0,0-2.4.29,4.75,4.75,0,0,1,2.4-.65c.83,0,1.66,0,2.48,0a7,7,0,0,0,4.44-1.16A4.85,4.85,0,0,0,187,194.7a14.66,14.66,0,0,0,.68-2.31c.18-.8.32-1.61.47-2.42.09-.41.18-.82.29-1.22A2.35,2.35,0,0,1,188.93,187.63Z" style="fill:#263238"></path><path d="M154.94,192c2.35,7.77,23.4,41.15,32,46.57,11.59,7.28,50.72-19.39,54.7-24.42,2.17-2.75-13.8-12.26-18-12.26-3.74,0-26.15,15.5-29.93,12.62-2.22-1.69-17.67-14.64-27.6-23.86C157.13,182.3,151.7,181.31,154.94,192Z" style="fill:#eb9481"></path><path d="M163.81,212.47l20.88-8S166.24,188.21,159.47,185c-7.63-3.66-7.83,1-5.23,8.65S163.81,212.47,163.81,212.47Z" style="fill:#FFC727"></path><path d="M170.88,203.17a1,1,0,0,1-.48-.16.94.94,0,0,1-.42-.78,1.18,1.18,0,0,0-.77-1.09,1.25,1.25,0,0,0-.63,0,5.41,5.41,0,0,0-.58.12c.18.05.39.07.58.12a1.13,1.13,0,0,1,.48.14.93.93,0,0,1,.45.76,1.18,1.18,0,0,0,.72,1.11,1.24,1.24,0,0,0,.65.06,4,4,0,0,0,.58-.12C171.27,203.23,171.07,203.21,170.88,203.17Zm-4.49-13.7a.61.61,0,0,0,0,.14,5.41,5.41,0,0,0,.12.58c0-.18.07-.35.11-.54A1.88,1.88,0,0,0,166.39,189.47ZM160,204.05c0-.19-.07-.38-.11-.58a4.28,4.28,0,0,0-.12.58,1.13,1.13,0,0,1-.16.5.79.79,0,0,1-.23.25l.21.4a1.08,1.08,0,0,0,.37-.5A1.32,1.32,0,0,0,160,204.05Zm22.78-1.2a1.12,1.12,0,0,0-.4.51,1,1,0,0,0-.06.64,5.4,5.4,0,0,0,.11.58,3.71,3.71,0,0,0,.11-.58,1.31,1.31,0,0,1,.17-.47.83.83,0,0,1,.45-.36Zm-24.09-9.79a1.05,1.05,0,0,1-.45.22.87.87,0,0,1-.84-.26,1.18,1.18,0,0,0-1.31-.22,1.13,1.13,0,0,0-.49.42,5.39,5.39,0,0,0-.33.5c.18-.11.33-.23.5-.33a1,1,0,0,1,.45-.24.9.9,0,0,1,.85.21,1.16,1.16,0,0,0,1.29.28,1.24,1.24,0,0,0,.51-.42c.1-.16.22-.32.32-.5C159,192.83,158.89,193,158.72,193.06Zm14.86,2a.76.76,0,0,0-.08.11l.12-.07Z" style="fill:#fff"></path><path d="M180.33,201.89c-.77.17-7.31,2.56-8.72,3.11s-7.21,2.74-8.62,3.43a.06.06,0,0,0,0,.11c1.5-.41,7.35-2.61,8.8-3.14s7.88-3,8.55-3.41C180.43,202,180.38,201.88,180.33,201.89Z" style="fill:#263238"></path><path d="M175.57,208l-11.76,4.51h0s-2.45-4-5-8.78c-.94-1.78-1.88-3.67-2.72-5.52-.24-.52-.47-1-.69-1.57-.44-1-.83-2-1.16-3-1.05-3.07-1.64-5.67-1.47-7.43,0-.1,0-.2,0-.3a2.74,2.74,0,0,1,.05-.28,2,2,0,0,1,.07-.26,1.69,1.69,0,0,1,.08-.24,3.91,3.91,0,0,1,.2-.41l.06-.08a1.47,1.47,0,0,1,.1-.13,1.29,1.29,0,0,1,.16-.17,2.12,2.12,0,0,1,1.31-.58Z" style="fill:#263238"></path><path d="M161.6,249.8l2.46-20.51s7.77-5.76,6.87-13.14c-.46-3.74-5.5-22.94-9.75-28.75-4-5.46-11.89-4.18-15.4-1.71-11.16,7.84-20.29,16.36-34.13,45.92Z" style="fill:#FFC727"></path><path d="M124.24,235.63a1.32,1.32,0,0,1-.46.23.92.92,0,0,1-.84-.26,1.18,1.18,0,0,0-1.13-.29l2.24.82a1.45,1.45,0,0,0,.36-.33c.1-.17.22-.32.32-.5C124.55,235.41,124.39,235.53,124.24,235.63Zm23.67,5.69a1.22,1.22,0,0,1-.46.22.92.92,0,0,1-.84-.26,1.19,1.19,0,0,0-1.31-.23,1.37,1.37,0,0,0-.49.43c-.1.17-.22.32-.33.49.18-.1.33-.22.5-.32a1.19,1.19,0,0,1,.45-.25.92.92,0,0,1,.85.22,1.22,1.22,0,0,0,1.29.28,1.42,1.42,0,0,0,.51-.42c.11-.16.22-.32.32-.5C148.23,241.08,148.08,241.21,147.91,241.32Zm9.66-15.25a1,1,0,0,1-.46.22.9.9,0,0,1-.84-.26,1.17,1.17,0,0,0-1.31-.22,1.26,1.26,0,0,0-.49.42c-.11.16-.22.31-.33.49a3.92,3.92,0,0,0,.5-.33,1.41,1.41,0,0,1,.45-.24.91.91,0,0,1,.85.23,1.2,1.2,0,0,0,1.29.27,1.18,1.18,0,0,0,.51-.42c.1-.16.22-.31.32-.49A4.68,4.68,0,0,0,157.57,226.07Zm-25.17,2.14a1,1,0,0,1-.45.23.94.94,0,0,1-.86-.25,1.15,1.15,0,0,0-1.3-.24,1.27,1.27,0,0,0-.48.43,5.36,5.36,0,0,0-.34.49,3.32,3.32,0,0,0,.5-.33,1,1,0,0,1,.45-.23.9.9,0,0,1,.84.22,1.21,1.21,0,0,0,1.3.27,1.15,1.15,0,0,0,.5-.41,5.39,5.39,0,0,0,.33-.5C132.72,228,132.56,228.11,132.4,228.21ZM143,207.27a1,1,0,0,1-.44.23.92.92,0,0,1-.85-.26,1.2,1.2,0,0,0-1.31-.23,1.06,1.06,0,0,0-.48.43c-.11.16-.24.32-.34.49.18-.1.34-.22.5-.33a1,1,0,0,1,.45-.23.87.87,0,0,1,.85.21,1.17,1.17,0,0,0,1.8-.14,5.29,5.29,0,0,0,.32-.5C143.34,207.05,143.19,207.17,143,207.27Zm15.7-14.21a1.05,1.05,0,0,1-.45.22.87.87,0,0,1-.84-.26,1.18,1.18,0,0,0-1.31-.22,1.13,1.13,0,0,0-.49.42,5.39,5.39,0,0,0-.33.5c.18-.11.33-.23.5-.33a1,1,0,0,1,.45-.24.9.9,0,0,1,.85.21,1.16,1.16,0,0,0,1.29.28,1.24,1.24,0,0,0,.51-.42c.1-.16.22-.32.32-.5C159,192.83,158.89,193,158.72,193.06Zm-23.55,45.53c0-.2-.08-.39-.12-.58a3.73,3.73,0,0,0-.12.58,1.05,1.05,0,0,1-.16.49.87.87,0,0,1-.75.44,1.26,1.26,0,0,0-.43.08l.86.31a1.15,1.15,0,0,0,.67-.68A1.29,1.29,0,0,0,135.17,238.59ZM160,204.05c0-.19-.07-.38-.11-.58a4.28,4.28,0,0,0-.12.58,1.13,1.13,0,0,1-.16.5.89.89,0,0,1-.75.44,1.17,1.17,0,0,0-1.1.73,1,1,0,0,0-.06.64c0,.2.06.39.1.58a3.73,3.73,0,0,0,.12-.58,1.15,1.15,0,0,1,.17-.47.86.86,0,0,1,.78-.42,1.21,1.21,0,0,0,1.09-.77A1.32,1.32,0,0,0,160,204.05Zm-26.91-4.13c0-.19-.06-.38-.11-.58-.06.2-.08.39-.12.58a1.18,1.18,0,0,1-.15.5.9.9,0,0,1-.76.44,1.18,1.18,0,0,0-1.1.72,1.14,1.14,0,0,0-.07.65c.05.19.07.39.12.58.06-.19.08-.39.12-.58a.94.94,0,0,1,.16-.47.9.9,0,0,1,.78-.43,1.16,1.16,0,0,0,1.09-.76A1.32,1.32,0,0,0,133.12,199.92Zm-9.2,19.75a4.56,4.56,0,0,0-.12-.58c0,.18-.07.37-.12.58a1.13,1.13,0,0,1-.14.48.88.88,0,0,1-.76.44,1.16,1.16,0,0,0-1.17,1.38c0,.19.06.38.12.58.06-.2.08-.39.12-.58a1,1,0,0,1,.16-.48.91.91,0,0,1,.79-.42,1.16,1.16,0,0,0,1.07-.77A1,1,0,0,0,123.92,219.67Zm32.23,27.39a3.5,3.5,0,0,0-.12-.58c0,.19-.07.37-.11.58a1.13,1.13,0,0,1-.15.48.44.44,0,0,1-.08.11l.37.13a.3.3,0,0,0,0-.08A1,1,0,0,0,156.15,247.06Zm-13.43-28.61a5,5,0,0,0-.12-.58c0,.19-.07.37-.12.58a1.13,1.13,0,0,1-.14.48.89.89,0,0,1-.76.44,1.22,1.22,0,0,0-1.11.73,1.18,1.18,0,0,0-.06.64,4.12,4.12,0,0,0,.12.59c.06-.2.08-.39.12-.59a1,1,0,0,1,.16-.47.89.89,0,0,1,.78-.42,1.2,1.2,0,0,0,1.09-.76A1.29,1.29,0,0,0,142.72,218.45Zm6.41-33.67a5.4,5.4,0,0,0-.1-.58,5.41,5.41,0,0,0-.12.58,1.23,1.23,0,0,1-.15.49.87.87,0,0,1-.76.43,1.2,1.2,0,0,0-1.1.74,1.06,1.06,0,0,0-.07.65c0,.19.07.38.11.58a4.28,4.28,0,0,0,.12-.58,1.06,1.06,0,0,1,.17-.49.91.91,0,0,1,.78-.41,1.14,1.14,0,0,0,1.12-1.41Zm17.13,29a1.27,1.27,0,0,1-.45.25.93.93,0,0,1-.85-.22,1.22,1.22,0,0,0-1.29-.28,1.18,1.18,0,0,0-.51.42c-.1.16-.22.32-.33.5.18-.11.33-.23.5-.34a1.25,1.25,0,0,1,.45-.22.94.94,0,0,1,.85.26,1.2,1.2,0,0,0,1.31.23,1.29,1.29,0,0,0,.49-.43c.11-.17.22-.32.32-.5C166.58,213.53,166.43,213.65,166.26,213.75ZM139,191.87a1.52,1.52,0,0,1-.45.24.94.94,0,0,1-.75-.14l-.36.32a1.18,1.18,0,0,0,1.24.18,1.36,1.36,0,0,0,.48-.43c.11-.17.23-.32.33-.5C139.27,191.64,139.11,191.76,139,191.87Zm28.85,32.21a1.21,1.21,0,0,0-.65,0c-.19,0-.38,0-.58.1.2.06.39.08.58.12a1.23,1.23,0,0,1,.5.15.92.92,0,0,1,.43.74c.12-.17.25-.34.36-.51A1.12,1.12,0,0,0,167.8,224.08ZM153.36,216a1.13,1.13,0,0,1-.47-.15.9.9,0,0,1-.42-.78,1.19,1.19,0,0,0-.77-1.09,1,1,0,0,0-.64,0l-.59.12c.2.06.39.08.59.12a1.18,1.18,0,0,1,.49.14.9.9,0,0,1,.44.76,1.2,1.2,0,0,0,.73,1.11,1.18,1.18,0,0,0,.64.06c.2,0,.39-.06.59-.12Zm-36.85,12.75a1.28,1.28,0,0,1-.49-.17.89.89,0,0,1-.41-.78,1.19,1.19,0,0,0-.77-1.09,1.29,1.29,0,0,0-.64-.05l-.21,0h0a1,1,0,0,1-.07.15l.29.05a1,1,0,0,1,.48.15.89.89,0,0,1,.45.76,1.18,1.18,0,0,0,.72,1.1,1.09,1.09,0,0,0,.66.06,4.62,4.62,0,0,0,.58-.12Zm27.25,3.07a1.42,1.42,0,0,1-.49-.17.91.91,0,0,1-.41-.78,1.17,1.17,0,0,0-.77-1.09,1.29,1.29,0,0,0-.64-.05c-.2.05-.39.07-.58.12a5.41,5.41,0,0,0,.58.12,1.09,1.09,0,0,1,.49.15.91.91,0,0,1,.45.76,1.15,1.15,0,0,0,.72,1.1,1.05,1.05,0,0,0,.65.06,4.28,4.28,0,0,0,.58-.12C144.14,231.9,144,231.88,143.76,231.85Zm-11.64-16.28a1.13,1.13,0,0,1-.48-.15,1,1,0,0,1-.42-.79,1.17,1.17,0,0,0-.75-1.08,1.09,1.09,0,0,0-.66-.05,3.86,3.86,0,0,0-.57.12,5.78,5.78,0,0,0,.57.12,1.09,1.09,0,0,1,.5.14.92.92,0,0,1,.44.75,1.15,1.15,0,0,0,1.37,1.18c.19,0,.39-.06.58-.12C132.51,215.64,132.31,215.62,132.12,215.57Zm25.95,22.32a1.09,1.09,0,0,1-.49-.16.91.91,0,0,1-.41-.78,1.17,1.17,0,0,0-.77-1.09,1.28,1.28,0,0,0-.64,0c-.19,0-.39.06-.58.11.19.06.39.08.58.12a1.23,1.23,0,0,1,.49.15.91.91,0,0,1,.45.76,1.16,1.16,0,0,0,.72,1.1,1.13,1.13,0,0,0,.65.07c.19,0,.38-.07.58-.12C158.45,238,158.26,237.93,158.07,237.89Zm-10.74-38.37a.92.92,0,0,1-.47-.17.85.85,0,0,1-.41-.78,1.25,1.25,0,0,0-.77-1.09,1.18,1.18,0,0,0-.64,0,4.12,4.12,0,0,0-.59.12l.59.1a1.14,1.14,0,0,1,.48.16.9.9,0,0,1,.44.75,1.19,1.19,0,0,0,.73,1.1,1.12,1.12,0,0,0,.64.08l.58-.12A3.73,3.73,0,0,0,147.33,199.52Z" style="fill:#fff"></path><path d="M153.14,189c.09,1,3.31,6.79,7.75,6.8,2.3,0,2.59-6.3,2.59-6.3l.2-.54,2.79-7.57-8.38-7.12-1.22-.95s-.63,2.12-1.39,4.77c0,.12-.07.25-.1.38a4.14,4.14,0,0,0-.13.43c-.12.39-.24.8-.35,1.2s-.17.61-.24.93-.17.64-.25,1A50.4,50.4,0,0,0,153.14,189Z" style="fill:#eb9481"></path><path d="M155.48,178.08a16.24,16.24,0,0,0,8.2,10.87l2.79-7.57-8.38-7.12-1.22-.95S156.24,175.43,155.48,178.08Z" style="fill:#263238"></path><path d="M178.63,169c1.55,14.08-6.71,16.6-9.75,16.93-2.75.3-12.18,1-15.18-12.87s3.06-19,9.33-20S177.08,155,178.63,169Z" style="fill:#eb9481"></path><path d="M153.89,172.1c3.38,0,3.23-5.37,3.23-5.37s3.82-.44,3.95-6.63a9.37,9.37,0,0,0,7.14,4.33c1.1.13-2.65-2.63-2.65-2.63s4.51,3.89,12.66,2.18c.58-.12-.86-8.72-7.35-11.52s-12.25-1-16.13,3.16a7.8,7.8,0,0,0-4,6.17C150.34,166.26,152.58,172.12,153.89,172.1Z" style="fill:#263238"></path><path d="M176.24,168.14c-.33,0-.64-.11-1-.16a1.66,1.66,0,0,1-1-.35.51.51,0,0,1,0-.62,1.23,1.23,0,0,1,1.22-.34,1.81,1.81,0,0,1,1.17.59A.54.54,0,0,1,176.24,168.14Z" style="fill:#263238"></path><path d="M166.5,167.05a8.14,8.14,0,0,0,1-.19,1.58,1.58,0,0,0,.94-.38.5.5,0,0,0,0-.61,1.23,1.23,0,0,0-1.23-.31,1.82,1.82,0,0,0-1.16.63A.54.54,0,0,0,166.5,167.05Z" style="fill:#263238"></path><path d="M168.72,170.58s-.07,0-.06.09c.09,1,0,2.07-.81,2.45,0,0,0,.06,0,0C168.91,173,169,171.47,168.72,170.58Z" style="fill:#263238"></path><path d="M167.8,169.63c-1.56,0-1.47,3.1,0,3.11S169.1,169.64,167.8,169.63Z" style="fill:#263238"></path><path d="M167.19,169.81c-.27.18-.52.5-.85.54s-.67-.27-.93-.57c0,0,0,0,0,0,0,.59.25,1.2.89,1.27s1-.48,1.12-1.08C167.4,169.9,167.3,169.74,167.19,169.81Z" style="fill:#263238"></path><path d="M174.25,170.47s.08,0,.08.08c0,1,.21,2.07,1.1,2.34,0,0,0,.06,0,.06C174.35,172.85,174.12,171.39,174.25,170.47Z" style="fill:#263238"></path><path d="M175.06,169.42c1.54-.2,1.83,2.9.4,3.08S173.76,169.59,175.06,169.42Z" style="fill:#263238"></path><path d="M175.68,169.52c.29.16.58.44.91.44s.64-.35.86-.68c0,0,.05,0,.05,0a1.14,1.14,0,0,1-.73,1.37c-.58.14-1-.35-1.25-.94C175.48,169.64,175.56,169.46,175.68,169.52Z" style="fill:#263238"></path><path d="M169,178.36c.23.23.45.54.8.58a2.5,2.5,0,0,0,1-.23,0,0,0,0,1,0,.06,1.31,1.31,0,0,1-1.23.5,1,1,0,0,1-.74-.87C168.87,178.34,169,178.33,169,178.36Z" style="fill:#263238"></path><path d="M172.87,174.71s.26,1.44.29,2.12c0,.06-.17.1-.4.12,0,0,0,0,0,0a3.25,3.25,0,0,1-3.19-1.08c-.05-.07,0-.14.1-.1a4.91,4.91,0,0,0,3,.73c0-.19-.52-2.44-.41-2.45a5.89,5.89,0,0,1,1.56.29c-.45-3-1.37-5.9-1.78-8.9a.1.1,0,0,1,.18-.05,50.08,50.08,0,0,1,2.32,9.5C174.57,175.27,173.15,174.82,172.87,174.71Z" style="fill:#263238"></path><path d="M154,173.2c.62,1.87-3.89-7-4-8.33s2-8.27,7.49-11.57c4.59-2.76,10.61-1.57,11.66-1.36a8.37,8.37,0,0,1,3.09,1.25s-7.72-1.39-14.11,1.06C155.1,155.44,151.7,166.21,154,173.2Z" style="fill:#FFC727"></path><path d="M155,152.89s1.17-4.17,4.65-5.61c0,0,.88,3.61-.05,5.15-.46.77-3.21,1.82-3.67,1.44A6.31,6.31,0,0,1,155,152.89Z" style="fill:#FFC727"></path><path d="M157.79,153.58a4.77,4.77,0,0,1-1.47.37h-.1l-.09,0h-.08l-.08,0a6.06,6.06,0,0,1-.76-.77l-.17-.2h0a9.85,9.85,0,0,1,.57-1.43,2.54,2.54,0,0,1,1.36.68A9.73,9.73,0,0,1,157.79,153.58Z" style="fill:#050400;opacity:0.1"></path><path d="M154.3,153.63s-5.23.66-7.33,2.44a7,7,0,0,0,4.75,2.16c1.21,0,3.92-3,3.57-3.55A5.37,5.37,0,0,0,154.3,153.63Z" style="fill:#FFC727"></path><path d="M155.32,154.8a2.78,2.78,0,0,1-.73,1.29,2.49,2.49,0,0,1-.9-.64,3,3,0,0,1-.57-1.63c.71-.13,1.18-.18,1.18-.18a4.9,4.9,0,0,1,1,1l0,.07S155.33,154.78,155.32,154.8Z" style="fill:#050400;opacity:0.1"></path><path d="M154.1,154.92a1.72,1.72,0,1,0,.07-2.42A1.71,1.71,0,0,0,154.1,154.92Z" style="fill:#FFC727"></path><path d="M156.1,173s-3.19-4.35-5.17-3.2.49,7.5,2.87,8.32a2.4,2.4,0,0,0,3.18-1.36Z" style="fill:#eb9481"></path><path d="M151.68,171.56a0,0,0,0,0,0,.06,6.11,6.11,0,0,1,3.22,3.72,1.33,1.33,0,0,0-2-.32.05.05,0,0,0,0,.09,1.47,1.47,0,0,1,1.63.48,6.84,6.84,0,0,1,.81,1.29c.08.15.34.06.28-.11v0C155.65,174.63,154,171.72,151.68,171.56Z" style="fill:#263238"></path><rect x="153.02" y="204.08" width="133.07" height="93.43" style="fill:#ebebeb"></rect><path d="M222.64,247.53a28.65,28.65,0,0,1-4.36,13.2l-7.35-4.25a20.42,20.42,0,0,0,3.21-9Z" style="fill:#455a64"></path><path d="M222.73,245.32c0,.31,0,.62,0,.92h-8.48c0-.3,0-.61,0-.92a20.38,20.38,0,0,0-9.2-17.06l4.25-7.35A28.89,28.89,0,0,1,222.73,245.32Z" style="fill:#a6a6a6"></path><path d="M208.2,220.24,204,227.59a20.14,20.14,0,0,0-9.49-2.68v-8.48A28.67,28.67,0,0,1,208.2,220.24Z" style="fill:#455a64"></path><path d="M193.19,216.43v8.48a20.36,20.36,0,0,0-17,10.06l-7.35-4.24A28.86,28.86,0,0,1,193.19,216.43Z" style="fill:#FFC727"></path><path d="M175.61,236.1a20.17,20.17,0,0,0-2.19,8.86h-8.48a28.57,28.57,0,0,1,3.32-13.11Z" style="fill:#a6a6a6"></path><path d="M182.45,262.28l-4.25,7.35A28.82,28.82,0,0,1,165,246.24h8.48A20.38,20.38,0,0,0,182.45,262.28Z" style="fill:#455a64"></path><path d="M217.56,261.79a28.89,28.89,0,0,1-38.27,8.51l4.25-7.34a20.43,20.43,0,0,0,26.66-5.43Z" style="fill:#fff"></path><path d="M208.94,246.24a13.42,13.42,0,0,1-8.16,12.33l-5.24-12.33Z" style="fill:#FFC727"></path><path d="M193.83,245.32l5.23,12.33s0,0,0,0c-.41.16-.82.32-1.23.44a13.38,13.38,0,0,1-16.76-8.81,13.47,13.47,0,0,1,0-8,13.39,13.39,0,0,1,25.57,0,13.67,13.67,0,0,1,.6,4Z" style="fill:#FFC727"></path><path d="M193.83,245.32l5.23,12.33s0,0,0,0c-.41.16-.82.32-1.23.44a13.38,13.38,0,0,1-16.76-8.81,13.47,13.47,0,0,1,0-8,13.56,13.56,0,0,1,8.8-8.8,13.29,13.29,0,0,1,8,0,13.35,13.35,0,0,1,9.41,12.77Z" style="fill:#fff"></path><path d="M193.83,245.33l-8.72,10.15a13.39,13.39,0,1,1,22.11-10.15Z" style="fill:#a6a6a6"></path><polygon points="232.18 277.25 213.52 277.25 190.4 254.14 190.74 253.8 213.72 276.78 232.18 276.78 232.18 277.25" style="fill:#263238"></polygon><rect x="189.27" y="252.67" width="2.6" height="2.6" style="fill:#263238"></rect><polygon points="232.18 259.37 211.15 259.37 201.16 249.39 201.5 249.05 211.35 258.89 232.18 258.89 232.18 259.37" style="fill:#263238"></polygon><rect x="200.03" y="247.92" width="2.6" height="2.6" style="fill:#263238"></rect><rect x="200.38" y="241.68" width="31.81" height="0.48" style="fill:#263238"></rect><rect x="198.73" y="240.61" width="2.6" height="2.6" style="fill:#263238"></rect><rect x="240.37" y="239.31" width="25.01" height="2.15" style="fill:#455a64"></rect><rect x="240.37" y="243.79" width="33.79" height="2.15" style="fill:#455a64"></rect><rect x="240.37" y="248.28" width="17.93" height="2.15" style="fill:#455a64"></rect><rect x="229.57" y="239.31" width="5.22" height="5.22" style="fill:#FFC727"></rect><rect x="240.37" y="256.67" width="29.73" height="2.15" style="fill:#455a64"></rect><rect x="240.37" y="261.16" width="23.52" height="2.15" style="fill:#455a64"></rect><rect x="240.37" y="265.65" width="33.79" height="2.15" style="fill:#455a64"></rect><rect x="229.57" y="256.67" width="5.22" height="5.22" style="fill:#a6a6a6"></rect><rect x="240.37" y="274.04" width="29.73" height="2.15" style="fill:#455a64"></rect><rect x="240.37" y="278.53" width="23.52" height="2.15" style="fill:#455a64"></rect><rect x="240.37" y="283.01" width="33.79" height="2.15" style="fill:#455a64"></rect><rect x="229.57" y="274.04" width="5.22" height="5.22" style="fill:#c7c7c7"></rect><path d="M141,195.11c-3.4,7-16.53,40.12-13.06,53,2.13,7.89,28,25.19,34.64,29.12,2.87,1.71,15.36-16.72,14.3-20.13s-25.9-18.25-27.44-20.44c0,0,1-24.31,1.57-37.26C151.52,187.15,147.36,182.1,141,195.11Z" style="fill:#eb9481"></path><path d="M193.33,269.58c3.7,1.95,10.18,1.46,9.6,4.52-.51,2.72-5,2.62-5,2.62s5.06,1.76,3.67,4.53-6.32,1.65-6.32,1.65,4.28,1.27,2.7,3.94-5.95,2.48-5.95,2.48,1,1.2-1,2.58c-2.8,2-9.91-.15-13.36-2.15s-14.59-11.85-16.27-13.39L174,254.13s7.77.72,11.66,1.56,16,7.2,14.57,10.29-9.8-1.53-12.12-2.21-2.86-.26-2.06.86C186.58,265.36,191.69,268.72,193.33,269.58Z" style="fill:#eb9481"></path><path d="M197.69,276.61c-6.29-.58-8.94-1.92-13.88-5.7-.09-.08-.23,0-.13.13,4.49,4.15,7.57,6.32,14,5.88C198,276.9,198,276.64,197.69,276.61Z" style="fill:#263238"></path><path d="M195.53,282.86c-6.49-1.17-9.38-2.6-14.83-6.18-.08-.06-.18.07-.1.13,5.06,4,8.18,6.05,14.81,6.37C195.71,283.2,195.82,282.92,195.53,282.86Z" style="fill:#263238"></path><path d="M191.94,289.26c-6.19-1.59-9.43-3-14.28-7.18a.11.11,0,1,0-.16.16c4.53,4.73,8.56,6.55,14.37,7.2C192.27,289.48,192.33,289.36,191.94,289.26Z" style="fill:#263238"></path><path d="M152.05,216.64,129.94,219s8.95-22.77,13.47-28.72c5.08-6.7,7.4-2.63,8.55,5.28S152.05,216.64,152.05,216.64Z" style="fill:#FFC727"></path><path d="M143,207.27a1,1,0,0,1-.44.23.92.92,0,0,1-.85-.26,1.2,1.2,0,0,0-1.31-.23,1.06,1.06,0,0,0-.48.43c-.11.16-.24.32-.34.49.18-.1.34-.22.5-.33a1,1,0,0,1,.45-.23.87.87,0,0,1,.85.21,1.17,1.17,0,0,0,1.8-.14,5.29,5.29,0,0,0,.32-.5C143.34,207.05,143.19,207.17,143,207.27Zm3.82-20.11c0,.17.06.33.1.51a4.28,4.28,0,0,0,.12-.58h0ZM151.7,214a1,1,0,0,0-.64,0l-.59.12c.2.06.39.08.59.12a1.18,1.18,0,0,1,.49.14.9.9,0,0,1,.44.76,1.31,1.31,0,0,0,.13.55c0-.34,0-.78.08-1.28A1.06,1.06,0,0,0,151.7,214Zm-19.58,1.56a1.13,1.13,0,0,1-.48-.15l-.18-.16c-.05.14-.11.27-.16.4a.56.56,0,0,0,.17.09,1.24,1.24,0,0,0,.65.06c.19,0,.39-.06.58-.12C132.51,215.64,132.31,215.62,132.12,215.57Zm15.21-16a.92.92,0,0,1-.47-.17.85.85,0,0,1-.41-.78,1.25,1.25,0,0,0-.77-1.09,1.18,1.18,0,0,0-.64,0,4.12,4.12,0,0,0-.59.12l.59.1a1.14,1.14,0,0,1,.48.16.9.9,0,0,1,.44.75,1.19,1.19,0,0,0,.73,1.1,1.12,1.12,0,0,0,.64.08l.58-.12A3.73,3.73,0,0,0,147.33,199.52Z" style="fill:#fff"></path><path d="M132.63,214.77c.75-.2,7.63-1.05,9.13-1.21s7.62-.84,9.18-.87a.06.06,0,0,1,0,.11c-1.52.32-7.69,1-9.21,1.22s-8.35.88-9.11.86C132.57,214.87,132.58,214.79,132.63,214.77Z" style="fill:#263238"></path><path d="M150.3,216.81c.66-.12,1.7-.26,1.7-.26.23-2.58.21-15.68.27-18.84,0-.05.07,0,.07,0,.09,1.8.16,3.58.22,5.37,0-.23.07-.45.1-.67.11-.8.24-1.6.33-2.4a.05.05,0,1,1,.1,0,16.45,16.45,0,0,1-.17,2.43c-.08.57-.2,1.13-.33,1.68,0,1,.06,2,.06,3.08,0,3.15.13,6.42-.11,9.57a12.11,12.11,0,0,1-2.24.2A.08.08,0,0,1,150.3,216.81Z" style="fill:#263238"></path><path d="M138,199.89c-.77,1.24-1.55,2.47-2.2,3.78.19-.67.4-1.34.62-2,0-.07-.08-.11-.11,0a14.24,14.24,0,0,0-.89,2.82c-.77,1.61-1.49,3.26-2.17,4.9a86.22,86.22,0,0,0-3.6,9.78.24.24,0,0,0,.24.29c.79-.09,1.57-.18,2.35-.32.09,0,.06-.15,0-.15q-1,0-2,0a153.62,153.62,0,0,1,7.86-19C138.19,199.82,138.1,199.76,138,199.89Z" style="fill:#263238"></path><path d="M227.28,194.19a3.63,3.63,0,0,1,3.86,1.94s1.5-3.16,4.4-3.08c1.49,0,2.74,2.45,2.74,2.45a4.32,4.32,0,0,1,3.89-2.25c2.05.18,3,2.58,3,2.58s2.36-1.79,4.39-.94c4.13,1.73,4.46,19.41-2,22.26-3,1.33-2.86-3-2.86-3s-1.72,6.16-5.37,6.32-3.1-5.44-3.1-5.44-1.72,6-5.52,5.74-2.45-5.73-2.45-5.73-2.59,4-5.45,3.15c-4.74-1.37,1.51-10.29.51-14.16H216S224.15,194.63,227.28,194.19Z" style="fill:#eb9481"></path><path d="M245.37,196.18c0-.06.08-.08.09,0a30.69,30.69,0,0,1-.74,18.24c-.07.18-.4.14-.36-.07A62.81,62.81,0,0,0,245.37,196.18Z" style="fill:#263238"></path><path d="M238.32,195.42c0-.07.1-.09.12,0a28.68,28.68,0,0,1-2.05,19.83c-.11.22-.42.29-.31,0C237.94,211,238.91,201.1,238.32,195.42Z" style="fill:#263238"></path><path d="M227.88,215.42c2.91-6,3.58-12.41,3.33-19,0-.09.12-.08.14,0,1,3.21.73,7.46.23,10.75a17.74,17.74,0,0,1-3.48,8.42C228,215.62,227.82,215.55,227.88,215.42Z" style="fill:#263238"></path><path d="M244.56,214.51a12.67,12.67,0,0,1-1.48,3.55,5.55,5.55,0,0,1-3,2.54,3.37,3.37,0,0,1-2.06,0,2.72,2.72,0,0,1-1.51-1.45,7.84,7.84,0,0,1-.51-3.94l.68.15a12,12,0,0,1-1.84,3.5,5.68,5.68,0,0,1-3.35,2.2,4,4,0,0,1-2.07-.15,2.65,2.65,0,0,1-1.52-1.47,6.62,6.62,0,0,1-.09-4l.43.2A10.78,10.78,0,0,1,227,217a6.49,6.49,0,0,1-1.61,1,3.77,3.77,0,0,1-1.87.36,3,3,0,0,1-1.7-.77,3.14,3.14,0,0,0,1.71.61,3.5,3.5,0,0,0,1.73-.46,8.65,8.65,0,0,0,2.68-2.43l.63-.84-.2,1a6.14,6.14,0,0,0,.2,3.59,2,2,0,0,0,1.17,1.11,3.4,3.4,0,0,0,1.71.09,5,5,0,0,0,2.89-2,11.32,11.32,0,0,0,1.76-3.24l1-2.72-.28,2.87a7.34,7.34,0,0,0,.4,3.58,2.3,2.3,0,0,0,1.14,1.18,2.87,2.87,0,0,0,1.72.07,5.32,5.32,0,0,0,2.83-2.23A14.19,14.19,0,0,0,244.56,214.51Z" style="fill:#263238"></path></g></svg>